<svg width="16" height="16" viewBox="0 0 16 16" fill="none" xmlns="http://www.w3.org/2000/svg">
<path d="M16 0H0V16H16V0Z" fill="#53052C"/>
<path fill-rule="evenodd" clip-rule="evenodd" d="M3.76656 13.9235H12.3322C12.48 13.9235 12.6015 14.0424 12.6015 14.1849C12.6015 14.3274 12.4791 14.4472 12.3322 14.4472H3.76656C3.61967 14.4472 3.49727 14.3292 3.49727 14.1849C3.49727 14.0407 3.6188 13.9235 3.76656 13.9235ZM10.8879 4.37771C11.0295 4.37771 11.1449 4.26492 11.1449 4.1259C11.1449 3.98776 11.0295 3.8741 10.8879 3.8741H5.2118C5.07016 3.8741 4.95475 3.98776 4.95475 4.1259C4.95475 4.26404 5.07016 4.37771 5.2118 4.37771H10.8879ZM8.31126 3.68525V3.20262C8.31126 3.12743 8.37421 3.06536 8.45115 3.06536H8.65399C8.73093 3.06536 8.79388 3.12743 8.79388 3.20262V3.68525H9.31847C9.31672 3.67563 9.31585 3.66689 9.31585 3.65639V3.20175C9.31585 3.12656 9.3788 3.06448 9.45574 3.06448H9.65858C9.73552 3.06448 9.79847 3.12656 9.79847 3.20175V3.65639C9.79847 3.66601 9.7976 3.67563 9.79497 3.68525H10.3231C10.3213 3.67563 10.3196 3.66689 10.3196 3.65639V3.20175C10.3196 3.12656 10.3825 3.06448 10.4595 3.06448H10.6623C10.7392 3.06448 10.8022 3.12656 10.8022 3.20175V3.65639C10.8022 3.66601 10.8013 3.67563 10.7987 3.68525H11.1572L11.9633 2.75585H4.13464L4.94076 3.68525H5.29923C5.29749 3.67563 5.29574 3.66689 5.29574 3.65639V3.20175C5.29574 3.12656 5.35869 3.06448 5.43563 3.06448H5.63847C5.71541 3.06448 5.77836 3.12656 5.77836 3.20175V3.65639C5.77836 3.66601 5.77749 3.67563 5.77486 3.68525H6.30295C6.3012 3.67563 6.29945 3.66689 6.29945 3.65639V3.20175C6.29945 3.12656 6.3624 3.06448 6.43934 3.06448H6.64219C6.71913 3.06448 6.78208 3.12656 6.78208 3.20175V3.65639C6.78208 3.66601 6.7812 3.67563 6.77945 3.68525H7.30404V3.20262C7.30404 3.12743 7.36699 3.06536 7.44393 3.06536H7.64678C7.72372 3.06536 7.78667 3.12743 7.78667 3.20262V3.68525C8.50448 3.68525 7.59169 3.68525 8.30951 3.68525H8.31126ZM4.01311 1.39891H5.62798V2.0118H4.01311V1.39891ZM7.24197 1.62885H5.92087C5.87191 1.62885 5.83169 1.66907 5.83169 1.71803C5.83169 1.76699 5.87191 1.80721 5.92087 1.80721H7.24197V2.0118H8.85683V1.39891H7.24197V1.62885ZM10.4717 1.62885H9.1165C9.06754 1.62885 9.02732 1.66907 9.02732 1.71803C9.02732 1.76699 9.06754 1.80721 9.1165 1.80721H10.4717V2.0118H12.0866V1.39891H10.4717V1.62885ZM3.89508 2.53639C3.71148 2.51366 3.66776 2.38251 3.67825 2.20852H12.4197C12.431 2.38339 12.3864 2.51454 12.2028 2.53639H3.89508ZM10.0415 4.91016L9.84131 5.73814V11.6494L10.0415 12.4774H8.56393L8.76415 11.6494V8.59716H7.33464V11.6494L7.53486 12.4774H6.05814L6.25836 11.6494V5.73814L6.05814 4.91016H7.53486L7.33464 5.73814V7.92394H8.76415V5.73814L8.56393 4.91016H10.0415ZM5.04568 13.0273H11.0662C11.2087 13.0273 11.325 13.1401 11.325 13.2791C11.325 13.4181 11.2079 13.5309 11.0662 13.5309H5.04568C4.90404 13.5309 4.78689 13.4181 4.78689 13.2791C4.78689 13.1401 4.90317 13.0273 5.04568 13.0273Z" fill="#D6B36A"/>
</svg>
